# xmcd
#
# Track frame offsets: 
#        150
#        16516
#        27351
#        44381
#        58492
#        78946
#        89520
#        105358
#        123169
#        133506
#        148004
#        159833
#        172333
#        183102
#        195847
#        208113
#
# Disc length: 2917 seconds
#
# Revision: 0
# Processed by: cddbd v1.5.2PL0 Copyright (c) Steve Scherf et al.
# Submitted via: ExactAudioCopy v0.95b3
#
DISCID=cd0b6310
DTITLE=Various Artist - Country No.1 [CD7-Posledni kovboj)
DYEAR=2007
DGENRE=Country
TTITLE0=Posledni kovboj
TTITLE1=Lepsi kamarad je kun
TTITLE2=Sbohem lasko
TTITLE3=Annie Laure
TTITLE4=lady
TTITLE5=U sklenicky whisky
TTITLE6=Uragan
TTITLE7=Pro dcerusku (Solitaire)
TTITLE8=Nejsem k mani
TTITLE9=Vlak pulnocni
TTITLE10=Zamecky pan
TTITLE11=Konicku muj
TTITLE12=Hraly dudy
TTITLE13=Ozrala kobyla
TTITLE14=Julinka
TTITLE15=Jsi jen blud
EXTD=
EXTT0=
EXTT1=
EXTT2=
EXTT3=
EXTT4=
EXTT5=
EXTT6=
EXTT7=
EXTT8=
EXTT9=
EXTT10=
EXTT11=
EXTT12=
EXTT13=
EXTT14=
EXTT15=
PLAYORDER=
